<svg width="402" height="398" viewBox="0 0 402 398" fill="none" xmlns="http://www.w3.org/2000/svg">
<path d="M80.062 62.8174H321.579C335.742 62.8174 347.189 73.8318 347.189 87.376V319.17C347.189 332.714 335.742 343.729 321.579 343.729H80.062C65.8985 343.729 54.4517 332.714 54.4517 319.17V87.376C54.4518 73.8318 65.8985 62.8174 80.062 62.8174Z" fill="#F8FAFC" stroke="white"/>
<path d="M136.01 159.496L141.635 177.178H141.851L147.488 159.496H152.942L144.92 182.769H138.579L130.545 159.496H136.01ZM160.664 159.496V182.769H155.743V159.496H160.664ZM164.712 182.769V159.496H169.633V178.712H179.61V182.769H164.712ZM182.868 182.769V159.496H187.789V169.098H197.778V159.496H202.687V182.769H197.778V173.155H187.789V182.769H182.868ZM206.743 182.769V159.496H222.425V163.553H211.664V169.098H221.618V173.155H211.664V178.712H222.471V182.769H206.743ZM245.803 159.496V182.769H241.553L231.428 168.121H231.258V182.769H226.337V159.496H230.655L240.701 174.132H240.905V159.496H245.803ZM253.88 182.769H248.607L256.641 159.496H262.982L271.005 182.769H265.732L259.903 164.814H259.721L253.88 182.769ZM253.55 173.621H266.005V177.462H253.55V173.621Z" fill="#050505"/>
<path d="M104.52 189.55H297.48C299.429 189.55 301 191.113 301 193.03C301 194.947 299.429 196.51 297.48 196.51H104.52C102.571 196.51 101 194.947 101 193.03C101 191.113 102.571 189.55 104.52 189.55Z" fill="#1E4D63" fill-opacity="0.9" stroke="black"/>
<path d="M134.771 226.878V212.799H138.331V226.878H134.771ZM129.511 221.618V218.059H143.591V221.618H129.511ZM154.317 229.98V209.617H162.351C163.895 209.617 165.211 209.912 166.298 210.502C167.385 211.085 168.214 211.897 168.784 212.938C169.361 213.972 169.649 215.165 169.649 216.517C169.649 217.87 169.357 219.063 168.774 220.097C168.191 221.131 167.346 221.936 166.239 222.513C165.138 223.09 163.806 223.378 162.241 223.378H157.121V219.928H161.545C162.374 219.928 163.057 219.785 163.594 219.5C164.137 219.209 164.542 218.808 164.807 218.297C165.079 217.78 165.215 217.187 165.215 216.517C165.215 215.841 165.079 215.251 164.807 214.748C164.542 214.237 164.137 213.843 163.594 213.564C163.05 213.279 162.361 213.137 161.526 213.137H158.622V229.98H154.317ZM185.024 209.617H189.329V222.841C189.329 224.326 188.975 225.625 188.265 226.739C187.563 227.853 186.578 228.721 185.312 229.344C184.046 229.961 182.571 230.269 180.887 230.269C179.197 230.269 177.719 229.961 176.453 229.344C175.187 228.721 174.202 227.853 173.5 226.739C172.797 225.625 172.446 224.326 172.446 222.841V209.617H176.751V222.473C176.751 223.249 176.92 223.938 177.258 224.542C177.603 225.145 178.087 225.619 178.71 225.963C179.333 226.308 180.059 226.48 180.887 226.48C181.723 226.48 182.449 226.308 183.065 225.963C183.688 225.619 184.169 225.145 184.507 224.542C184.851 223.938 185.024 223.249 185.024 222.473V209.617ZM179.366 207.648L181.474 203.124H185.392L182.359 207.648H179.366ZM192.871 229.98V209.617H201.025C202.523 209.617 203.773 209.839 204.773 210.283C205.774 210.727 206.527 211.344 207.031 212.132C207.534 212.915 207.786 213.816 207.786 214.837C207.786 215.632 207.627 216.332 207.309 216.935C206.991 217.532 206.553 218.022 205.996 218.407C205.446 218.784 204.817 219.053 204.107 219.212V219.411C204.883 219.444 205.609 219.663 206.285 220.067C206.968 220.471 207.521 221.038 207.945 221.767C208.37 222.49 208.582 223.352 208.582 224.353C208.582 225.433 208.313 226.398 207.776 227.246C207.246 228.088 206.46 228.754 205.42 229.245C204.379 229.735 203.096 229.98 201.572 229.98H192.871ZM197.177 226.461H200.687C201.887 226.461 202.762 226.232 203.312 225.775C203.862 225.31 204.137 224.694 204.137 223.925C204.137 223.362 204.001 222.864 203.729 222.434C203.458 222.003 203.07 221.665 202.566 221.419C202.069 221.174 201.476 221.051 200.786 221.051H197.177V226.461ZM197.177 218.138H200.369C200.959 218.138 201.482 218.035 201.94 217.83C202.404 217.618 202.768 217.319 203.033 216.935C203.305 216.551 203.441 216.09 203.441 215.553C203.441 214.817 203.179 214.224 202.656 213.773C202.139 213.322 201.403 213.097 200.448 213.097H197.177V218.138ZM211.383 229.98V209.617H215.689V226.431H224.419V229.98H211.383ZM231.575 209.617V229.98H227.27V209.617H231.575ZM253.085 216.746H248.73C248.65 216.183 248.488 215.682 248.243 215.245C247.997 214.801 247.682 214.423 247.298 214.111C246.913 213.8 246.469 213.561 245.966 213.395C245.468 213.23 244.928 213.147 244.345 213.147C243.291 213.147 242.373 213.408 241.591 213.932C240.808 214.449 240.202 215.205 239.771 216.199C239.34 217.187 239.125 218.387 239.125 219.799C239.125 221.25 239.34 222.47 239.771 223.458C240.208 224.445 240.818 225.191 241.601 225.695C242.383 226.199 243.288 226.451 244.315 226.451C244.892 226.451 245.425 226.374 245.916 226.222C246.413 226.069 246.854 225.847 247.238 225.556C247.623 225.257 247.941 224.896 248.193 224.472C248.451 224.048 248.63 223.564 248.73 223.02L253.085 223.04C252.972 223.975 252.69 224.876 252.24 225.745C251.796 226.606 251.196 227.379 250.44 228.061C249.691 228.738 248.796 229.275 247.755 229.672C246.721 230.063 245.551 230.259 244.245 230.259C242.429 230.259 240.805 229.848 239.373 229.026C237.948 228.204 236.821 227.014 235.993 225.456C235.171 223.899 234.76 222.013 234.76 219.799C234.76 217.578 235.177 215.689 236.012 214.131C236.848 212.573 237.981 211.387 239.413 210.571C240.845 209.749 242.456 209.338 244.245 209.338C245.425 209.338 246.519 209.504 247.527 209.836C248.541 210.167 249.439 210.651 250.221 211.287C251.003 211.917 251.64 212.689 252.13 213.604C252.628 214.519 252.946 215.566 253.085 216.746ZM259.299 229.98H254.686L261.716 209.617H267.264L274.284 229.98H269.67L264.569 214.27H264.41L259.299 229.98ZM259.011 221.976H269.909V225.337H259.011V221.976Z" fill="#1E4D63" fill-opacity="0.9"/>
</svg>
